<?xml version="1.0" encoding="UTF-8" standalone="no"?><!DOCTYPE svg PUBLIC "-//W3C//DTD SVG 1.1//EN" "http://www.w3.org/Graphics/SVG/1.1/DTD/svg11.dtd"><svg width="100%" height="100%" viewBox="0 0 1690 931" version="1.1" xmlns="http://www.w3.org/2000/svg" xmlns:xlink="http://www.w3.org/1999/xlink" xml:space="preserve" xmlns:serif="http://www.serif.com/" style="fill-rule:evenodd;clip-rule:evenodd;stroke-linejoin:round;stroke-miterlimit:2;"><g id="Background"><path d="M215.919,622.806c-16.317,1.983 -57.089,4.028 -58.597,-0.555c-0.714,-2.171 -2.91,-240.529 0.696,-266.362c12.871,-92.22 104.961,-121.576 159.698,-103.177c57.656,19.38 83.94,71.347 85.206,111.24c1.381,43.541 -0.078,119.053 0.204,236.524c0.042,17.32 0.354,23.92 -5.139,24.173c-2.226,0.103 -93.636,0.093 -93.736,0.082c-10.272,-1.037 18.498,-13.54 21.249,-46.022c2.023,-23.884 -32.703,-50.114 -23.624,-34.156c14.039,24.678 -8.403,69.613 -85.955,78.25Z" style="fill:#fff;fill-opacity:1;"/><path d="M353.781,372.077c1.313,34.931 0.151,35.869 -2.203,37.77c-5.865,4.737 -21.635,0.696 -31.215,27.44c-2.46,6.867 -1.527,7.61 -4.293,8.947c-2.982,1.442 -11.145,3.111 -18.371,11.734c-4.624,5.519 -2.179,11.371 -12.393,15.074c-3.479,1.261 -30.393,11.018 -19.544,41.925c4.806,13.692 43.842,34.69 21.732,63.446c-27.084,35.225 -113.466,37.198 -116.679,31.73c-2.052,-3.493 -2.824,-241.123 1.43,-258.457c5.916,-24.11 15.697,-61.552 69.46,-84.201c67.659,-28.502 146.665,24.266 148.177,100.539c0.092,4.667 1.132,57.119 -0.155,58.343c-2.196,2.089 -5.796,-6.81 -13.856,-11.512c-6.737,-3.93 -8.618,-4.007 -8.698,-18.283c-0.044,-7.853 11.136,-89.631 -66.977,-110.35c-32.705,-8.675 -103.995,7.847 -106.637,88.579c-0.18,5.491 -1,205.912 0.849,210.598c1.108,2.808 12.141,5.546 12.236,-5.306c0.654,-74.551 -1.729,-206.697 1.651,-222.839c15.873,-75.81 125.586,-84.36 143.792,-1.524c0.782,3.556 0.574,3.553 1.695,16.348Z" style="fill:#f1edea;"/><path d="M596.566,471.941c-4.24,0.437 -16.399,0.52 -13.094,4.43c1.297,1.535 50.528,54.173 57.926,61.512c6.943,6.888 19.943,14.883 9.494,15.35c-27.693,1.238 -27.628,-1.207 -31.005,-4.702c-27.412,-28.36 -63.635,-74.046 -70.929,-74.848c-22.179,-2.438 -22.645,1.318 -22.873,3.151c-1.647,13.279 2.846,72.701 -3.166,75.631c-0.338,0.165 -17.371,2.479 -18.589,-2.375c-0.048,-0.192 -1.321,-181.666 0.655,-183.791c2.317,-2.492 82.334,-4.417 104.958,2.162c58.116,16.902 49.05,82.11 8.56,98.114c-11.243,4.444 -11.369,3.602 -21.937,5.365Zm-11.038,-95.196c15.893,3.247 43.07,6.031 42.508,45.667c-0.264,18.61 -16.352,36.457 -38.429,38.862c-5.258,0.573 -61.331,3.82 -62.781,-0.645c-1.18,-3.633 -2.357,-79.836 0.385,-83.042c3.61,-4.22 53.661,-1.13 58.318,-0.842Z" style="fill:#fff;fill-opacity:1;"/><path d="M1087.936,491.788c-2.175,-58.635 53.564,-73.611 56.483,-74.236c70.904,-15.182 110.62,54.174 84.637,100.251c-11.875,21.06 -24.236,25.886 -32.853,30.169c-42.549,21.148 -101.87,1.038 -108.267,-56.184Zm22.995,-2.848c-1.077,-86.423 97.662,-75.8 102.314,-14.849c6.259,82.012 -61.474,77.457 -81.299,61.295c-17.667,-14.403 -18.945,-34.704 -21.015,-46.447Z" style="fill:#fff;fill-opacity:1;"/><path d="M332.798,612.102c-9.007,-2.27 -1.999,-5.692 0.971,-14.457c17.771,-52.446 -35.201,-71.464 -42.929,-75.134c-24.281,-11.534 -15.141,-32.238 -5.61,-36.118c10.091,-4.108 15.009,1.051 17.247,-9.694c4.781,-22.949 22.809,-17.243 26.174,-19c3.633,-1.897 -2.232,-34.089 28.576,-34.825c27.262,-0.651 26.899,32.266 26.913,32.297c1.714,3.734 5.709,2.098 5.727,12.087c0.02,11.309 0.247,137.97 -0.113,141.361c-0.463,4.356 -2.641,3.83 -56.957,3.483Z" style="fill:#f1edea;"/><path d="M1522.948,540.65c0.011,-0.93 0.128,-11.229 -1.01,-11.586c-1.391,-0.436 -3.073,2.205 -3.248,2.48c-15.535,24.398 -45.219,26.372 -63.041,22.461c-2.91,-0.639 -22.35,-4.905 -28.159,-24.374c-15.719,-52.683 80.279,-54.242 90.858,-60.578c5.781,-3.463 3.769,-10.631 3.395,-13.98c-3.599,-32.234 -32.285,-33.228 -52.291,-23.939c-20.1,9.333 -14.841,28.187 -23.352,25.196c-13.38,-4.701 -12.161,-8.899 -9.859,-12.382c25.829,-39.082 86.704,-35.812 101.826,-5.006c3.735,7.608 6.858,13.971 5.611,105.793c-0.132,9.753 -3.619,8.586 -13.324,8.613c-9.135,0.025 -7.613,-3.576 -7.406,-12.7Zm-0.251,-39.408c-0.334,6.25 1.446,17.985 -13.964,30.054c-26.247,20.556 -71.805,10.987 -58.063,-24.371c5.736,-14.759 24.112,-16.272 67.489,-28.682c6.039,-1.728 4.53,8.943 4.539,22.999Z" style="fill:#fff;fill-opacity:1;"/><path d="M854.733,419.014c5.047,-0.149 5.015,-0.178 5.451,-0.16c11.797,0.478 2.263,24.093 6.807,23.907c0.954,-0.039 17.45,-28.317 50.298,-27.192c42.808,1.467 37.603,38.472 45.28,26.161c20.699,-33.197 85.873,-42.212 94.133,14.704c0.693,4.778 0.07,83.355 -0.238,92.419c-0.047,1.384 -0.214,6.278 -16.83,4.043c-5.433,-0.731 -3.153,-19.19 -3.528,-80.201c-0.421,-68.431 -59.102,-43.729 -71.759,-19.333c-8.796,16.953 0.942,92.174 -5.054,98.039c-2.966,2.901 -15.086,1.587 -16.099,1.275c-6.933,-2.13 -0.838,-54.477 -4.246,-96.282c-2.81,-34.471 -47.566,-36.069 -67.08,-7.17c-9.921,14.693 -3.726,39.604 -5.674,98.285c-0.324,9.762 -18.057,5.254 -19.52,3.947c-2.298,-2.054 -1.838,-2.699 -1.805,-112.745c0.004,-13.184 -3.273,-18.143 9.865,-19.697Z" style="fill:#fff;fill-opacity:0.99;"/><path d="M756.973,554.824c-5.954,0.497 -19.527,4.739 -44.758,-5.175c-45.939,-18.052 -61.386,-105.563 12.164,-130.959c21.874,-7.553 74.673,-4.183 86.957,48.55c4.107,17.633 -3.213,15.886 -8.242,16.122c-35.06,1.649 -102.569,-1.813 -105.684,1.824c-4.368,5.1 1.829,68.444 66.286,56.922c25.094,-4.486 35.681,-30.679 43.174,-21.623c2.665,3.221 -9.189,27.891 -49.897,34.339Zm-12.314,-129.043c5.476,0.232 5.402,-0.083 10.749,1.164c31.541,7.355 37.479,43.287 31.229,45.248c-5.903,1.853 -5.934,1.377 -77.333,0.905c-7.001,-0.046 -14.253,2.396 -10.897,-8.568c12.263,-40.06 46.012,-38.715 46.253,-38.75Z" style="fill:#fff;fill-opacity:1;"/><path d="M1268.826,472.697c-0.206,-6.63 -0.441,-44.204 0.033,-47.66c0.193,-1.405 1.095,-7.984 16.849,-5.517c6.895,1.08 3.944,15.816 3.528,26.117c-0.304,7.517 4.875,-3.503 5.095,-3.97c6.491,-13.81 24.608,-27.119 44.355,-25.865c15.983,1.015 11.308,8.332 7.986,17.386c-4.518,12.312 -16.278,-11.915 -43.781,10.377c-23.683,19.196 -7.749,91.449 -13.606,106.419c-2.205,5.636 -17.677,2.539 -18.233,2.291c-2.411,-1.072 -2.102,-2.045 -2.224,-79.579Z" style="fill:#fff;fill-opacity:1;"/><path d="M1389.052,419.085c7.253,1.191 5.601,4.146 5.697,29.141c0.393,102.514 -0.104,104.029 -3.068,104.54c-17.901,3.084 -18.024,-2.441 -18.056,-3.919c-0.054,-2.427 -0.382,-123.812 0.433,-126.441c1.273,-4.108 13.768,-3.391 14.995,-3.32Z" style="fill:#fff;fill-opacity:1;"/><path d="M261.933,380.677c3.809,1.003 12.009,2.442 5.449,4.718c-13.32,4.621 -13.299,5.88 -18.163,19.036c-3.159,8.545 -2.497,-13.682 -16.999,-17.551c-0.645,-0.172 -11.896,-3.174 -7.155,-4.289c1.638,-0.385 11.042,-0.511 16.473,-7.875c5.699,-7.727 4.932,-19.829 7.8,-10.576c3.307,10.669 2.65,11.965 12.595,16.536Z" style="fill:#9d7b31;"/><path d="M1372.057,377.671c-1.65,-16.755 14.449,-16.651 19.789,-12.569c17.224,13.167 -12.444,36.804 -19.789,12.569Z" style="fill:#fff;fill-opacity:1;"/><path d="M291.83,341.115l1.296,1.162c-0.181,0.379 1.13,0.451 0.948,0.83c-0.398,0.832 -4.153,0.422 -5.82,4.729c-2.609,6.739 -3.14,-0.799 -4.933,-2.377c-1.963,-1.728 -2.638,-0.37 -4.539,-2.19c-1.247,-1.194 2.2,-2.11 2.454,-2.177c3.476,-0.923 3.993,-5.439 4.087,-5.572c2.583,-3.655 0.98,3.299 6.506,5.596Z" style="fill:#9e7c34;"/><path d="M277.216,424.123c5.171,-2.227 5.244,-10.016 6.922,-4.673c1.17,3.726 1.801,3.236 3.636,4.52l1.378,1.192c-0.188,0.405 1.147,0.53 0.959,0.934c-0.165,0.357 -0.669,-0.394 -4.304,2.378c-1.247,0.951 -2.493,8.999 -4.801,2.132c-1.188,-3.536 -5.779,-3.988 -6.041,-4.579c-0.173,-0.39 1.193,-0.381 1.02,-0.771l1.23,-1.134Z" style="fill:#9d7b32;"/><path d="M308.856,392.118c0.23,-5.074 6.876,-4.061 5.9,0.164c-1.113,4.819 -5.573,0.177 -5.9,-0.164Z" style="fill:#a3833f;"/></g></svg>