<?xml version="1.0" encoding="UTF-8" standalone="no"?>
<!DOCTYPE svg PUBLIC "-//W3C//DTD SVG 1.1//EN" "http://www.w3.org/Graphics/SVG/1.1/DTD/svg11.dtd">
<svg width="100%" height="100%" viewBox="0 0 1254 1254" version="1.1" xmlns="http://www.w3.org/2000/svg" xmlns:xlink="http://www.w3.org/1999/xlink" xml:space="preserve" xmlns:serif="http://www.serif.com/" style="fill-rule:evenodd;clip-rule:evenodd;stroke-linejoin:round;stroke-miterlimit:2;">
    <g id="Background" transform="matrix(1.224609,0,0,1.224609,0,0)">
        <path d="M319.477,727.5C319.474,647.421 319.009,647.443 319.535,640.503C321.521,614.294 335.851,607.399 335.925,600.502C336.533,543.998 335.59,544.097 335.945,487.499C336.327,426.745 328.978,374.818 373.963,319.887C469.957,202.672 656.881,249.957 686.049,395.584C691.789,424.241 687.325,584.016 688.855,602.453C689.001,604.214 703.997,619.576 705.225,639.525C705.446,643.114 705.322,729.134 705.296,730.488C705.231,733.815 703.47,733.256 678.506,733.234C627.3,733.19 625.837,733.795 624.959,730.418C624.771,729.694 624.928,645.856 625.002,643.5C626.145,606.963 624.985,607.079 625.036,570.497C625.245,420.343 626.513,420.196 623.726,407.453C599.339,295.921 454.248,286.496 408.698,381.591C396.984,406.048 399.388,407.502 399.141,557.501C398.856,730.318 400.023,731.407 397.612,732.669C393.894,734.616 327.601,733.363 321.514,733.248C317.786,733.177 319.72,731.298 319.477,727.5Z"/>
        <path d="M667.656,568.503C667.497,571.704 668.414,573.041 666.505,572.486C664.815,571.994 665.807,570.871 652.145,555.828C646.14,549.216 645.514,549.468 645.467,547.502C643.849,478.568 650.881,413.051 637.268,380.591C586.191,258.793 415.178,273.655 382.759,395.566C375.767,421.861 381.451,544.287 379.255,548.416C377.356,551.987 366.056,560.831 359.1,571.154C357.211,573.956 357.313,567.825 357.319,567.5C359.59,431.207 346.16,395.88 385.075,340.216C434.353,269.73 553.576,240.314 633.228,331.735C667.463,371.028 667.642,419.358 667.672,427.499C667.93,497.142 667.699,557.223 667.656,568.503Z" style="fill:rgb(249,243,236);"/>
        <path d="M522.5,730.302C522.5,730.302 455.422,730.626 416.493,730.371C405.762,730.3 415.498,711.327 421.467,711.126C427.838,710.91 601.293,711.084 601.487,711.086C607.286,711.155 607.596,713.175 611.074,720.743C616.857,733.328 606.552,730.288 587.498,730.266C554.983,730.229 522.5,730.302 522.5,730.302Z"/>
        <path d="M356.417,718.498C356.41,687.165 356.403,655.832 356.395,624.5C356.39,599.1 355.103,593.243 363.705,581.638C374.114,567.595 378.954,563.258 380.188,568.559C380.398,569.459 380.293,720.39 380.292,720.486C380.246,723.133 374.882,722.578 365.5,722.513C359.473,722.471 356.842,724.565 356.417,718.498Z" style="fill:rgb(248,242,234);"/>
        <path d="M668.392,715.5C668.339,717.163 668.413,718.829 668.36,720.492C668.299,722.414 666.715,722.467 666.498,722.474C645.237,723.181 644.58,722.261 644.536,720.497C644.242,708.741 644.803,708.87 644.543,573.499C644.541,572.893 644.529,566.33 646.454,566.173C648.133,566.036 667.069,584.342 668.16,598.535C668.877,607.864 668.555,607.857 668.392,715.5Z" style="fill:rgb(248,243,235);"/>
        <path d="M505.496,683.886C591.865,683.772 592.204,684.05 593.496,685.503C593.885,685.94 599.049,695.944 599.271,697.53C600.057,703.144 595.997,701.019 528.496,701.038C500.808,701.046 481.453,701.131 467.706,701.222C435.771,701.434 434.105,701.678 428.549,701.069C427.394,700.942 420.455,700.181 429.648,686.592C431.713,683.541 433.002,683.734 452.498,683.797C479.083,683.883 478.99,683.804 505.496,683.886Z" style="fill:rgb(15,4,0);"/>
        <path d="M695.492,707.5C695.527,714.699 696.52,722.481 693.501,722.541C674.893,722.906 674.329,722.004 674.262,720.528C674.157,718.248 674.088,604.858 674.271,604.333C675.046,602.114 679.432,608.251 684.905,615.14C696.822,630.141 695.699,631.681 695.492,707.5Z"/>
        <path d="M329.254,697.5C329.264,639.93 328.557,635.855 332.949,625.711C336.572,617.343 348.948,602.828 350.053,603.946C350.735,604.635 350.299,709.331 350.261,718.495C350.241,723.238 348.166,722.758 332.5,722.501C328.14,722.43 329.26,720.047 329.254,697.5Z"/>
        <path d="M502.501,660.198C515.221,660.205 525.866,660.203 534.783,660.207C579.845,660.228 580.747,660.405 582.094,662.784C583.052,664.475 589.589,674.594 583.509,674.724C577.441,674.855 455.446,674.646 441.517,674.77C433.747,674.84 440.792,660.559 446.477,660.333C450.955,660.155 450.853,660.208 502.501,660.198Z" style="fill:rgb(0,9,31);fill-opacity:0.86;"/>
        <path d="M520.5,639.474C568.457,639.564 569.504,638.752 571.098,641.763C571.477,642.479 575.551,650.175 574.353,651.346C572.606,653.053 541.831,652.009 515.501,652.168C510.382,652.199 454.14,652.538 451.502,652.127C446.027,651.273 452.632,640.017 456.514,639.585C457.312,639.496 457.602,639.491 474.075,639.489C483.382,639.488 497.854,639.488 520.5,639.474Z" style="fill-opacity:0.81;"/>
        <path d="M548.777,408.19C546.23,397.057 545.973,390.487 532.519,388.422C520.263,386.541 541.171,386.399 544.602,379.55C547.979,372.809 549.133,359.521 550.555,369.484C553.411,389.5 569.386,383.629 568.707,387.599C568.227,390.401 554.475,384.505 550.875,403.605L550.273,407.371C550.273,407.371 548.897,408.125 548.777,408.19Z" style="fill:rgb(1,0,52);"/>
    </g>
</svg>
